<?xml version="1.0" standalone="no"?><!DOCTYPE svg PUBLIC "-//W3C//DTD SVG 1.1//EN" "http://www.w3.org/Graphics/SVG/1.1/DTD/svg11.dtd"><svg t="1625757063951" class="icon" viewBox="0 0 1024 1024" version="1.1" xmlns="http://www.w3.org/2000/svg" p-id="5648" xmlns:xlink="http://www.w3.org/1999/xlink" width="16" height="16"><defs><style type="text/css"></style></defs><path d="M512 0C229.691077 0 0 229.671385 0 512s229.691077 512 512 512 512-229.671385 512-512S794.308923 0 512 0z m0 984.615385C251.411692 984.615385 39.384615 772.588308 39.384615 512S251.411692 39.384615 512 39.384615s472.615385 212.027077 472.615385 472.615385-212.027077 472.615385-472.615385 472.615385z" fill="#F56C6C" p-id="5649"></path><path d="M703.153231 320.846769a19.672615 19.672615 0 0 0-27.844923 0L512 484.155077l-163.308308-163.308308a19.672615 19.672615 0 1 0-27.844923 27.844923L484.155077 512l-163.308308 163.308308a19.672615 19.672615 0 1 0 27.844923 27.844923L512 539.844923l163.308308 163.308308a19.633231 19.633231 0 0 0 27.844923 0 19.672615 19.672615 0 0 0 0-27.844923L539.844923 512l163.308308-163.308308a19.672615 19.672615 0 0 0 0-27.844923z" fill="#F56C6C" p-id="5650"></path></svg>